/* XPM */
static char *result[] = {
/* columns rows colors chars-per-pixel */
"32 32 9 1 ",
"  c #181425",
". c #193D3F",
"X c #265C42",
"o c #3D8947",
"O c #63C64D",
"+ c #A1DD94",
"@ c #C0CCDC",
"# c white",
"$ c None",
/* pixels */
"$$$$$$$$$$$$        $$$$$$$$$$$$",
"$$$$$$$$$   +oooXXX. $$$$$$$$$$$",
"$$$$$$$$ +++ooooooXX. $$$$$$$$$$",
"$$$$$$$ +ooooooooooXX. $$$$$$$$$",
"$$$$$$ +ooXXXXXXooooXX. $$$$$$$$",
"$$$$$ +ooX......XooooX. $$$$$$$$",
"$$$$$ +oX........XoooXX. $$$$$$$",
"$$$$ +ooX@@ #  @@XooooX. $$$$$$$",
"$$$$ oooX##    ##XooooXX. $$$$$$",
"$$$$ oooX........XooooXX. $$$$$$",
"$$$$ XoooX......XooooXXX. $$$$$$",
"$$$$$ XoooXXXXXXoooooXX.. $$$$$$",
"$$$$$ XoooooooooooooXXX. $$$$$$$",
"$$$$$$ oX++++++++++XXXX. $$$$$$$",
"$$$$$$ o+ O  O O  O+XXX. $$$$$$$",
"$$$$$$ X+  O  O O  +XXX. $$$$$$$",
"$$$$$$ X+          +XXX. $$$$$$$",
"$$$$$$ X+ O  O  O O+XXX. $$$$$$$",
"$$$$$$$ .++++++++++.XXX. $$$$$$$",
"$$$$$$$ oXOXXOXoXOOOXXXX. $$$$$$",
"$$$$$$$ ooXOXXoooXXXXXXX. $$$$$$",
"$$$$$$$ oooXooXoooooXXXXXX $$$$$",
"$$$$$$$ ooXoooXoooooXXXXXX $$$$$",
"$$$$$$ oooXooXXXooooXXXX..X $$$$",
"$$$$$ .oooX.oX.XXoooXX.....X $$$",
"$$$$ .oooXX.oX.XXXoooXX.....X $$",
"$$$ .oooXX.ooX..XXXoooXX.....X $",
"$$$ ooXXXX.oXXX.XXXXoooXX..... $",
"$$ ooXXXX.oXXXX..XXXXoooXXX... $",
"$$  XXX. oXXXXX ..XXXXXXXXXX... ",
"$$$                             ",
"$$$$$$$$$$$$$$$$$$$$$$$$$$$$$$$$"
};
