/* XPM */
static char *result[] = {
/* columns rows colors chars-per-pixel */
"32 32 9 1 ",
"  c #181425",
". c #193D3F",
"X c #265C42",
"o c #3D8947",
"O c #63C64D",
"+ c #A1DD94",
"@ c #C0CCDC",
"# c white",
"$ c None",
/* pixels */
"$$$$$$$$$$$$        $$$$$$$$$$$$",
"$$$$$$$$$$$ .XXXooo+   $$$$$$$$$",
"$$$$$$$$$$ .XXoooooo+++ $$$$$$$$",
"$$$$$$$$$ .XXoooooooooo+ $$$$$$$",
"$$$$$$$$ .XXooooXXXXXXoo+ $$$$$$",
"$$$$$$$$ .XooooX......Xoo+ $$$$$",
"$$$$$$$ .XXoooX........Xo+ $$$$$",
"$$$$$$$ .XooooX@@  # @@Xoo+ $$$$",
"$$$$$$ .XXooooX##    ##Xooo $$$$",
"$$$$$$ .XXooooX........Xooo $$$$",
"$$$$$$ .XXXooooX......XoooX $$$$",
"$$$$$$ ..XXoooooXXXXXXoooX $$$$$",
"$$$$$$$ .XXXoooooooooooooX $$$$$",
"$$$$$$$ .XXXX++++++++++Xo $$$$$$",
"$$$$$$$ .XXX+O  O O  O +o $$$$$$",
"$$$$$$$ .XXX+  O O  O  +X $$$$$$",
"$$$$$$$ .XXX+          +X $$$$$$",
"$$$$$$$ .XXX+O O  O  O +X $$$$$$",
"$$$$$$$ .XXX.++++++++++. $$$$$$$",
"$$$$$$ .XXXXOOOXoXOXXOXo $$$$$$$",
"$$$$$$ .XXXXXXXoooXXOXoo $$$$$$$",
"$$$$$ XXXXXXoooooXooXooo $$$$$$$",
"$$$$$ XXXXXXoooooXoooXoo $$$$$$$",
"$$$$ X..XXXXooooXXXooXooo $$$$$$",
"$$$ X.....XXoooXX.Xo.Xooo. $$$$$",
"$$ X.....XXoooXXX.Xo.XXooo. $$$$",
"$ X.....XXoooXXX..Xoo.XXooo. $$$",
"$ .....XXoooXXXX.XXXo.XXXXoo $$$",
"$ ...XXXoooXXXX..XXXXo.XXXXoo $$",
" ...XXXXXXXXXX.. XXXXXo .XXX  $$",
"                             $$$",
"$$$$$$$$$$$$$$$$$$$$$$$$$$$$$$$$"
};
