/* XPM */
static char *result[] = {
/* columns rows colors chars-per-pixel */
"32 32 9 1 ",
"  c #181425",
". c #193D3F",
"X c #265C42",
"o c #3D8947",
"O c #63C64D",
"+ c #A1DD94",
"@ c #C0CCDC",
"# c white",
"$ c None",
/* pixels */
"$$$$$$$$$$$$$$$$$$$$$$$$$$$$$$$$",
"$$$$$$$$$$$$        $$$$$$$$$$$$",
"$$$$$$$$$   +ooXXXX. $$$$$$$$$$$",
"$$$$$$$$ +++ooooooXX. $$$$$$$$$$",
"$$$$$$$ +ooooooooooXX. $$$$$$$$$",
"$$$$$$ +ooooooooooooXX. $$$$$$$$",
"$$$$$ +oooXXXXXXooooXXX $$$$$$$$",
"$$$$$ +ooX......XooooXX. $$$$$$$",
"$$$$ +ooX........XoooXX. $$$$$$$",
"$$$$ oooX@@ #  @@XoooXX.. $$$$$$",
"$$$$ oooX##    ##XoooXX.. $$$$$$",
"$$$$ XooX........XooXXX.. $$$$$$",
"$$$$$ XooX......XoooXXX.. $$$$$$",
"$$$$$ XoooXXXXXXooooXX... $$$$$$",
"$$$$$ XooooooooooooXXX... $$$$$$",
"$$$$$$ oo+++++++++XXXX... $$$$$$",
"$$$$$$ o+ OO O  O +XXX... $$$$$$",
"$$$$$$ +O OO O  O O+XX... $$$$$$",
"$$$$$$ .+++++++++++.XXX.. $$$$$$",
"$$$$$$ oO...O..O..XoXXX.. $$$$$$",
"$$$$$$ oOXXXOXXOXXooXXXX. $$$$$$",
"$$$$$$ ooooooooOXoooXXXX.. $$$$$",
"$$$$$$ .ooXooooOXoooXX.XX. $$$$$",
"$$$$$$ .ooX.oXoXooooX....X. $$$$",
"$$$$$ ..ooX.oX.XoooXXX....X. $$$",
"$$$$ ..ooXX.oX.XoooXXXX....X $$$",
"$$$ ..ooXXX.oX..XoooXXXX..... $$",
"$$ ..ooXXX..oXX..XoooXXXX.... $$",
"$ ..ooXXX..oooXX..XooooXXX.... $",
"$ XXXXX  .oooXXXX .XooooXXX... $",
"$$                             $",
"$$$$$$$$$$$$$$$$$$$$$$$$$$$$$$$$"
};
