/* XPM */
static char *result[] = {
/* columns rows colors chars-per-pixel */
"32 32 9 1 ",
"  c #181425",
". c #193D3F",
"X c #265C42",
"o c #3D8947",
"O c #63C64D",
"+ c #A1DD94",
"@ c #C0CCDC",
"# c white",
"$ c None",
/* pixels */
"$$$$$$$$$$$$$$$$$$$$$$$$$$$$$$$$",
"$$$$$$$$$$$$$$$$$$$$$$$$$$$$$$$$",
"$$$$$$$$$$$$        $$$$$$$$$$$$",
"$$$$$$$$$$$ .XXXXoo+   $$$$$$$$$",
"$$$$$$$$$$ .XXXooooo+++ $$$$$$$$",
"$$$$$$$$$ .XXoooooooooo+ $$$$$$$",
"$$$$$$$$ .XXooooXXXXXXoo+ $$$$$$",
"$$$$$$$$ .XXoooX......Xoo+ $$$$$",
"$$$$$$$ .XXXooX........Xo+ $$$$$",
"$$$$$$$ .XXoooX@@  # @@Xoo+ $$$$",
"$$$$$$ ..XXoooX##    ##Xooo $$$$",
"$$$$$$ ..XXoooX##    ##Xooo $$$$",
"$$$$$$ ..XXXooo........oooX $$$$",
"$$$$$$ ...XXoooX......XooX $$$$$",
"$$$$$$ ...XXXooooooooooooX $$$$$",
"$$$$$$ ....XXXX+++++++++Xo $$$$$",
"$$$$$$ ....XX.+  O O  O +XX $$$$",
"$$$$$$ ...XX.+O  O    O O+X $$$$",
"$$$$$ ...XXX.+O  O  O O ++X $$$$",
"$$$$$ ...XXXX.+++++++++++. $$$$$",
"$$$$ ...XXXXXX..O..O...O.o $$$$$",
"$$$$ ...XXXXXXoXOoXOoooXoo $$$$$",
"$$$ ...XXXXXXXoXOoXOoXoo.X $$$$$",
"$$$ ..XXX..XXXooXoXXoXoo..X $$$$",
"$$$ .XX....XXXooo.XooXXoo..  $$$",
"$$  XX....XXXXooo.Xoo.Xooo..o $$",
"$$ .X....XXXXooo..Xoo.XXooo.. $$",
"$ .X....XXXXoooo.XXoo..XXooo.. $",
"$ .....XXXXoooo..Xoooo...Xoooo $",
"$ ....XXXXXXoo  oXXXXoo  .XXXX $",
"$                             $$",
"$$$$$$$$$$$$$$$$$$$$$$$$$$$$$$$$"
};
