/* XPM */
static char *result[] = {
/* columns rows colors chars-per-pixel */
"32 32 9 1 ",
"  c #181425",
". c #193D3F",
"X c #265C42",
"o c #3D8947",
"O c #63C64D",
"+ c #A1DD94",
"@ c #C0CCDC",
"# c white",
"$ c None",
/* pixels */
"$$$$$$$$$$$$$$$$$$$$$$$$$$$$$$$$",
"$$$$$$$$$$$$        $$$$$$$$$$$$",
"$$$$$$$$$   +ooXXXX. $$$$$$$$$$$",
"$$$$$$$$ +++oooooXXX. $$$$$$$$$$",
"$$$$$$$ +ooooooooooXX. $$$$$$$$$",
"$$$$$$ +ooXXXXXXoooXXX. $$$$$$$$",
"$$$$$ +ooX......XoooXXX $$$$$$$$",
"$$$$$ +oX........XooXXX. $$$$$$$",
"$$$$ +ooX@@ #  @@XoooXX. $$$$$$$",
"$$$$ oooX##    ##XoooXX.. $$$$$$",
"$$$$ oooX##    ##XoooXX.. $$$$$$",
"$$$$ XooX........XooXX... $$$$$$",
"$$$$$ XooX......XoooXX... $$$$$$",
"$$$$$ Xoo+++++++++XXXX... $$$$$$",
"$$$$$ XX+ O  O O  +XXX... $$$$$$",
"$$$$$$ +O O  O O  O+XX... $$$$$$",
"$$$$$$ +           +XXX.. $$$$$$",
"$$$$$$ +O O O  O  O+XXXX. $$$$$$",
"$$$$$$ o+++++++++++.XXXX. $$$$$$",
"$$$$$$ .OO..O..OOOOoXXXX. $$$$$$",
"$$$$$$ oXXooXOXXXXXoXXXX. $$$$$$",
"$$$$$$ ooooooXooooooXXXX.. $$$$$",
"$$$$$$ .ooXoooooooooXX.XX. $$$$$",
"$$$$$$ .ooX.ooooooooX....X. $$$$",
"$$$$$ ..ooX.oX.oooXXXX....X. $$$",
"$$$$ ..oooX.oX.ooooXXXX....X $$$",
"$$$ ..oooXX.oX..XoooXXXX..... $$",
"$$ ..oooXX..ooo..XoooXXXX.... $$",
"$ ..oooXX..ooXXo..XooooXXX... $$",
"$ XXXXX  .ooXXXXo .XXXXXXXX... $",
"$$                             $",
"$$$$$$$$$$$$$$$$$$$$$$$$$$$$$$$$"
};
