/* XPM */
static char *result[] = {
/* columns rows colors chars-per-pixel */
"32 32 9 1 ",
"  c #181425",
". c #193D3F",
"X c #265C42",
"o c #3D8947",
"O c #63C64D",
"+ c #A1DD94",
"@ c #C0CCDC",
"# c white",
"$ c None",
/* pixels */
"$$$$$$$$$$$$$$$$$$$$$$$$$$$$$$$$",
"$$$$$$$$$$$$        $$$$$$$$$$$$",
"$$$$$$$$$$$ .XXXXoo+   $$$$$$$$$",
"$$$$$$$$$$ .XXoooooo+++ $$$$$$$$",
"$$$$$$$$$ .XXoooooooooo+ $$$$$$$",
"$$$$$$$$ .XXoooooooooooo+ $$$$$$",
"$$$$$$$$ XXXooooXXXXXXooo+ $$$$$",
"$$$$$$$ .XXooooX......Xoo+ $$$$$",
"$$$$$$$ .XXoooX........Xoo+ $$$$",
"$$$$$$ ..XXoooX@@  # @@Xooo $$$$",
"$$$$$$ ..XXoooX##    ##Xooo $$$$",
"$$$$$$ ..XXXooX........XooX $$$$",
"$$$$$$ ..XXXoooX......XooX $$$$$",
"$$$$$$ ...XXooooXXXXXXoooX $$$$$",
"$$$$$$ ...XXXooooooooooooX $$$$$",
"$$$$$$ ...XXXX+++++++++oo $$$$$$",
"$$$$$$ ...XXX+ O  O OO +o $$$$$$",
"$$$$$$ ...XX+O O  O OO O+ $$$$$$",
"$$$$$$ ..XXX.+++++++++++. $$$$$$",
"$$$$$$ ..XXXoX..O..O...Oo $$$$$$",
"$$$$$$ .XXXXooXXOXXOXXXOo $$$$$$",
"$$$$$ ..XXXXoooXOoooooooo $$$$$$",
"$$$$$ .XX.XXoooXOooooXoo. $$$$$$",
"$$$$ .X....XooooXoXo.Xoo. $$$$$$",
"$$$ .X....XXXoooX.Xo.Xoo.. $$$$$",
"$$$ X....XXXXoooX.Xo.XXoo.. $$$$",
"$$ .....XXXXoooX..Xo.XXXoo.. $$$",
"$$ ....XXXXoooX..XXo..XXXoo.. $$",
"$ ....XXXooooX..XXooo..XXXoo.. $",
"$ ...XXXooooX. XXXXooo.  XXXXX $",
"$                             $$",
"$$$$$$$$$$$$$$$$$$$$$$$$$$$$$$$$"
};
