/* XPM */
static char *result[] = {
/* columns rows colors chars-per-pixel */
"32 32 9 1 ",
"  c #181425",
". c #193D3F",
"X c #265C42",
"o c #3D8947",
"O c #63C64D",
"+ c #A1DD94",
"@ c #C0CCDC",
"# c white",
"$ c None",
/* pixels */
"$$$$$$$$$$$$$$$$$$$$$$$$$$$$$$$$",
"$$$$$$$$$$$$$$$$$$$$$$$$$$$$$$$$",
"$$$$$$$$$$$$        $$$$$$$$$$$$",
"$$$$$$$$$   +ooXXXX. $$$$$$$$$$$",
"$$$$$$$$ +++oooooXXX. $$$$$$$$$$",
"$$$$$$$ +ooooooooooXX. $$$$$$$$$",
"$$$$$$ +ooXXXXXXooooXX. $$$$$$$$",
"$$$$$ +ooX......XoooXX. $$$$$$$$",
"$$$$$ +oX........XooXXX. $$$$$$$",
"$$$$ +ooX@@ #  @@XoooXX. $$$$$$$",
"$$$$ oooX##    ##XoooXX.. $$$$$$",
"$$$$ oooX##    ##XoooXX.. $$$$$$",
"$$$$ Xooo........oooXXX.. $$$$$$",
"$$$$$ XooX......XoooXX... $$$$$$",
"$$$$$ XooooooooooooXXX... $$$$$$",
"$$$$$ oX+++++++++XXXX.... $$$$$$",
"$$$$ XX+ O  O O  +.XX.... $$$$$$",
"$$$$ X+O O    O  O+.XX... $$$$$$",
"$$$$ X++ O O  O  O+.XXX... $$$$$",
"$$$$$ .+++++++++++.XXXX... $$$$$",
"$$$$$ o.O...O..O..XXXXXX... $$$$",
"$$$$$ ooXoooOXoOXoXXXXXX... $$$$",
"$$$$$ X.ooXoOXoOXoXXXXXXX... $$$",
"$$$$ X..ooXoXXoXooXXX..XXX.. $$$",
"$$$  ..ooXXooX.oooXXX....XX. $$$",
"$$ o..oooX.ooX.oooXXXX....XX  $$",
"$$ ..oooXX.ooX..oooXXXX....X. $$",
"$ ..oooXX..ooXX.ooooXXXX....X. $",
"$ ooooX...ooooX..ooooXXXX..... $",
"$ XXXX.  ooXXXXo  ooXXXXXX.... $",
"$$                             $",
"$$$$$$$$$$$$$$$$$$$$$$$$$$$$$$$$"
};
