/* XPM */
static char *result[] = {
/* columns rows colors chars-per-pixel */
"32 32 9 1 ",
"  c #181425",
". c #193D3F",
"X c #265C42",
"o c #3D8947",
"O c #63C64D",
"+ c #A1DD94",
"@ c #C0CCDC",
"# c white",
"$ c None",
/* pixels */
"$$$$$$$$$$$$$$$$$$$$$$$$$$$$$$$$",
"$$$$$$$$$$$$        $$$$$$$$$$$$",
"$$$$$$$$$$$ .XXXXoo+   $$$$$$$$$",
"$$$$$$$$$$ .XXXooooo+++ $$$$$$$$",
"$$$$$$$$$ .XXoooooooooo+ $$$$$$$",
"$$$$$$$$ .XXXoooXXXXXXoo+ $$$$$$",
"$$$$$$$$ XXXoooX......Xoo+ $$$$$",
"$$$$$$$ .XXXooX........Xo+ $$$$$",
"$$$$$$$ .XXoooX@@  # @@Xoo+ $$$$",
"$$$$$$ ..XXoooX##    ##Xooo $$$$",
"$$$$$$ ..XXoooX##    ##Xooo $$$$",
"$$$$$$ ...XXooX........XooX $$$$",
"$$$$$$ ...XXoooX......XooX $$$$$",
"$$$$$$ ...XXXX+++++++++ooX $$$$$",
"$$$$$$ ...XXX+  O O  O +XX $$$$$",
"$$$$$$ ...XX+O  O O  O O+ $$$$$$",
"$$$$$$ ..XXX+           + $$$$$$",
"$$$$$$ .XXXX+O  O  O O O+ $$$$$$",
"$$$$$$ .XXXX.+++++++++++o $$$$$$",
"$$$$$$ .XXXXoOOOO..O..OO. $$$$$$",
"$$$$$$ .XXXXoXXXXXOXooXXo $$$$$$",
"$$$$$ ..XXXXooooooXoooooo $$$$$$",
"$$$$$ .XX.XXoooooooooXoo. $$$$$$",
"$$$$ .X....Xoooooooo.Xoo. $$$$$$",
"$$$ .X....XXXXooo.Xo.Xoo.. $$$$$",
"$$$ X....XXXXoooo.Xo.Xooo.. $$$$",
"$$ .....XXXXoooX..Xo.XXooo.. $$$",
"$$ ....XXXXoooX..ooo..XXooo.. $$",
"$$ ...XXXooooX..oXXoo..XXooo.. $",
"$ ...XXXXXXXX. oXXXXoo.  XXXXX $",
"$                             $$",
"$$$$$$$$$$$$$$$$$$$$$$$$$$$$$$$$"
};
