/* XPM */
static char *result[] = {
/* columns rows colors chars-per-pixel */
"32 32 7 1 ",
"  c black",
". c #1C242A",
"X c #444E5F",
"o c #435B69",
"O c #8E9DAA",
"+ c #C5D1DC",
"@ c #E6EDF3",
/* pixels */
"@@@@@@@@@@X          .@@@@@@@@@@",
"@+++++++++X          .+++++++++@",
"@OOOOOOOO+X          .+OOOOOOO+@",
"@OOOOOOOO+X          .+OOOOOOO+@",
"@OO....OO+X          .+OO....O+@",
"@OO....OO+X          .+OO.o..O+@",
"@OO....OO+X          .+OO.o..O+@",
"@OO....OO+X          .+OO.o..O+@",
"@OO....OO+X          .+OO.o..O+@",
"@OO....OO+X          .+OO.o..O+@",
"@OO....OO+X          .+OO.o..O+@",
"@OO...oOO+X          .+OO.o..O+@",
"@OO..ooOO+X          .+OO.o..O+@",
"@OO.oooOO+X          .+OO.o..O+@",
"@OOooo.OO+X          .+OO.o..O+@",
"@OOoo..O@+X          .@+O.o.oO+@",
"@OOo...O++X          .++O.oooO+@",
"@OO....OXXX          .XXO.oooO+@",
"@OO....OO+X          .+OO.oo.O+@",
"@OO....OO+X          .+OO.o..O+@",
"@OO....OO+X          .+OO.o..O+@",
"@OO....OO+X          .+OO.o..O+@",
"@OO....OO+X          .+OO.o..O+@",
"@OO...oOO+X          .+OO.o..O+@",
"@OO..ooOO+X          .+OO.o..O+@",
"@OO.oooOO+X          .+OO.o..O+@",
"@OOooooOO+X          .+OO.o..O+@",
"@OOXXXXOO+X          .+OOXXXXO+@",
"@OOOOOOOO+X          .+OOOOOOO+@",
"@OOOOOOOO+X          .+OOOOOOO+@",
"@OOOOOOOO+X          .+OOOOOOO+@",
"@OOOOOOOO+X          .+OOOOOOO+@"
};
