/* XPM */
static char *result[] = {
/* columns rows colors chars-per-pixel */
"32 32 9 1 ",
"  c black",
". c gray20",
"X c #9C4A00",
"o c #CC7E00",
"O c #CC6A14",
"+ c #E69C21",
"@ c #E5968A",
"# c #FFCEC6",
"$ c None",
/* pixels */
" .  $$$$$$$$$$$$$$$$$$$$$$$$$$$$",
"$$$$$$$$$$$$$$$$$$$$$$$$$$$$$$$$",
"$$$$$$$$$$$$$$$$$$$$$$$$$$$$$$$$",
"$$$$$$$$$$$$@@@@@@@@$$$$$$$$$$$$",
"$$$$$$$$$@@@########ooo$$$$$$$$$",
"$$$$$$$@@#########+++++oo$$$$$$$",
"$$$$$$@##########++++####o$$$$$$",
"$$$$$@#######oooooo+######o$$$$$",
"$$$$@######oo#####ooo######o$$$$",
"$$$$@####ooXX#++++oXXoo####o$$$$",
"$$$@####ooXOO#++++oXOXoo##+#o$$$",
"$$$@####oXO++#++++oX+OXo#+++o$$$",
"$$$@###oXO+++#++++oX++OXo+++o$$$",
"$$@####oXO+++#++++oX++OXo+++#o$$",
"$$@###oXO++++#++++oX+++OXo+++o$$",
"$$@###oXO++++#++++oX+++OXo+++o$$",
"$$@###oX+++++#++++oX++++Xo+++o$$",
"$$@###oX+++++#++++oX++++Xo+++o$$",
"$$@###oXO++++#++++oX+++OXo+++o$$",
"$$@###oXOOO++#++++oX+OOOXo+++o$$",
"$$@####oXOOOO#++++oXOOOXo++++o$$",
"$$$@###oXOOOO#++++oXOOOXo+++o$$$",
"$$$@####oXOOO#++++oXOOXo++++o$$$",
"$$$@####ooXOO#++++oXOXoo+++#o$$$",
"$$$$@####ooXXooooooXXoo#+++o$$$$",
"$$$$@######ooXXXXXXoo###+++o$$$$",
"$$$$$@#######oooooo#####+#o$$$$$",
"$$$$$$@########+++#####+#o$$$$$$",
"$$$$$$$@@#####+++#####+oo$$$$$$$",
"$$$$$$$$$@@@+++#####ooo$$$$$$$$$",
"$$$$$$$$$$$$oooooooo$$$$$$$$$$$$",
"$$$$$$$$$$$$$$$$$$$$$$$$$$$$$$$$"
};
